<svg width="18" height="20" viewBox="0 0 18 20" fill="none" xmlns="http://www.w3.org/2000/svg">
<path fill-rule="evenodd" clip-rule="evenodd" d="M12.7492 8.8125H5.62422H4.31322L3.38935 17.125H14.9853L14.0614 8.8125H12.7492ZM11.5617 5.25V6.4375H6.81172V5.25C6.81172 3.94375 7.87691 2.875 9.18672 2.875C10.4977 2.875 11.5617 3.94375 11.5617 5.25ZM4.43672 6.4375V5.25C4.43672 2.62562 6.56829 0.5 9.18672 0.5C11.8063 0.5 13.9367 2.62562 13.9367 5.25V6.4375H15.1242C15.7298 6.4375 16.2381 6.88875 16.3046 7.49438L17.4672 17.9444C17.5007 18.0525 17.5004 18.1606 17.5001 18.2777C17.5 18.2892 17.5 18.3008 17.5 18.3125C17.5 18.9656 16.9922 19.5 16.3367 19.5H2.06172C1.72447 19.5 1.40266 19.3575 1.17704 19.1081C0.95141 18.8587 0.844535 18.5144 0.882535 18.1819L2.07004 7.49438C2.13654 6.88875 2.64479 6.4375 3.24922 6.4375H4.43672Z" fill="white"/>
</svg>
