<svg width="58" height="41" viewBox="0 0 58 41" fill="none" xmlns="http://www.w3.org/2000/svg">
<path d="M47 9L51.5 14L56 9" stroke="black" stroke-width="3" stroke-linecap="round"/>
<path d="M3.25391 7.04688H0.868164V17H2.63184V14.0537L2.5498 9.58301L3.71875 13.7188H4.66895L5.97461 9.39844L5.89258 14.0537V17H7.65625V7.04688H5.27051L4.19727 10.7861L3.25391 7.04688ZM15.4287 12.6387V11.1211H11.3408V8.6123H16.0986V7.04688H9.41309V17H16.1191V15.4482H11.3408V12.6387H15.4287ZM24.2744 17V7.04688H22.3467L22.3398 13.4385L19.5918 7.04688H17.6572V17H19.5918V10.5811L22.3604 17H24.2744ZM32.751 7.04688H30.8438L30.8369 13.6436C30.8324 13.9671 30.7982 14.252 30.7344 14.498C30.6706 14.7441 30.5749 14.9492 30.4473 15.1133C30.3288 15.2728 30.1784 15.3936 29.9961 15.4756C29.8184 15.5531 29.6133 15.5918 29.3809 15.5918C29.1667 15.5918 28.9775 15.5553 28.8135 15.4824C28.6494 15.4049 28.5104 15.291 28.3965 15.1406C28.2734 14.9766 28.18 14.7692 28.1162 14.5186C28.057 14.2679 28.0251 13.9762 28.0205 13.6436L28.0137 7.04688H26.0928L26.0859 13.6436C26.0859 14.1995 26.1634 14.6963 26.3184 15.1338C26.4779 15.5667 26.7012 15.9313 26.9883 16.2275C27.2754 16.5238 27.6195 16.7493 28.0205 16.9043C28.4261 17.0592 28.8796 17.1367 29.3809 17.1367C29.9141 17.1367 30.388 17.0592 30.8027 16.9043C31.222 16.7493 31.5775 16.5215 31.8691 16.2207C32.1562 15.9245 32.375 15.5599 32.5254 15.127C32.6803 14.694 32.7578 14.1995 32.7578 13.6436L32.751 7.04688Z" fill="black"/>
<path d="M1 39.25H56" stroke="black" stroke-width="2" stroke-linecap="round" stroke-linejoin="round"/>
</svg>
