<svg width="58" height="41" viewBox="0 0 58 41" fill="none" xmlns="http://www.w3.org/2000/svg">
<path d="M47 9L51.5 14L56 9" stroke="white" stroke-width="3" stroke-linecap="round"/>
<path d="M7.80664 13.8828H5.88574C5.86751 14.1836 5.81738 14.4411 5.73535 14.6553C5.65332 14.8695 5.54167 15.0449 5.40039 15.1816C5.25911 15.3184 5.08822 15.4186 4.8877 15.4824C4.68717 15.5462 4.46159 15.5781 4.21094 15.5781C4.02409 15.5781 3.85319 15.5576 3.69824 15.5166C3.54785 15.471 3.41113 15.4027 3.28809 15.3115C3.17415 15.2295 3.07161 15.127 2.98047 15.0039C2.89388 14.8809 2.81868 14.7396 2.75488 14.5801C2.66374 14.3477 2.59538 14.0765 2.5498 13.7666C2.50879 13.4521 2.48828 13.0967 2.48828 12.7002V11.3467C2.48828 11.055 2.50195 10.7839 2.5293 10.5332C2.55664 10.278 2.59993 10.0456 2.65918 9.83594C2.73665 9.56706 2.83919 9.33236 2.9668 9.13184C3.09896 8.92676 3.25846 8.76953 3.44531 8.66016C3.55469 8.59635 3.67318 8.5485 3.80078 8.5166C3.93294 8.4847 4.07422 8.46875 4.22461 8.46875C4.50716 8.46875 4.7487 8.50749 4.94922 8.58496C5.1543 8.65788 5.3252 8.76725 5.46191 8.91309C5.59408 9.06348 5.69434 9.25033 5.7627 9.47363C5.83561 9.69694 5.88118 9.95671 5.89941 10.2529H7.81348C7.7679 9.7334 7.65853 9.26628 7.48535 8.85156C7.31217 8.43685 7.0752 8.08594 6.77441 7.79883C6.47363 7.51172 6.10905 7.29069 5.68066 7.13574C5.25684 6.98079 4.77148 6.90332 4.22461 6.90332C3.85547 6.90332 3.50911 6.95117 3.18555 7.04688C2.86654 7.13802 2.57259 7.27018 2.30371 7.44336C2.00293 7.64844 1.73405 7.89909 1.49707 8.19531C1.26009 8.49154 1.06868 8.82878 0.922852 9.20703C0.795247 9.51693 0.699544 9.85417 0.635742 10.2188C0.57194 10.5788 0.540039 10.9593 0.540039 11.3604V12.7002C0.540039 13.1286 0.574219 13.5342 0.642578 13.917C0.715495 14.2998 0.818034 14.6507 0.950195 14.9697C1.08691 15.2887 1.25326 15.5804 1.44922 15.8447C1.64974 16.109 1.8776 16.3346 2.13281 16.5215C2.41081 16.722 2.72298 16.877 3.06934 16.9863C3.42025 17.0911 3.80078 17.1436 4.21094 17.1436C4.73047 17.1436 5.20443 17.0684 5.63281 16.918C6.0612 16.763 6.43034 16.5443 6.74023 16.2617C7.05013 15.9792 7.29622 15.6374 7.47852 15.2363C7.66536 14.8353 7.77474 14.3841 7.80664 13.8828ZM11.3613 15.4482V7.04688H9.43359V17H16.0234V15.4482H11.3613ZM24.6572 12.7549V11.3057C24.6572 10.8545 24.6139 10.4284 24.5273 10.0273C24.4453 9.6263 24.3245 9.25716 24.165 8.91992C24.0192 8.6237 23.8438 8.35254 23.6387 8.10645C23.4382 7.86035 23.2035 7.65072 22.9346 7.47754C22.6657 7.29525 22.3626 7.15625 22.0254 7.06055C21.6927 6.96029 21.335 6.91016 20.9521 6.91016C20.5739 6.91016 20.223 6.95801 19.8994 7.05371C19.5758 7.14941 19.2842 7.28613 19.0244 7.46387C18.7601 7.64616 18.5254 7.86491 18.3203 8.12012C18.1198 8.37533 17.9489 8.66016 17.8076 8.97461C17.6618 9.30729 17.5501 9.6696 17.4727 10.0615C17.3997 10.4535 17.3633 10.8682 17.3633 11.3057V12.7549C17.3633 13.165 17.3952 13.5547 17.459 13.9238C17.5273 14.293 17.6253 14.6348 17.7529 14.9492C17.8942 15.291 18.0697 15.5986 18.2793 15.8721C18.4889 16.141 18.7259 16.3711 18.9902 16.5625C19.2591 16.7448 19.5576 16.8861 19.8857 16.9863C20.2139 17.0866 20.5716 17.1367 20.959 17.1367C21.3236 17.1367 21.6631 17.0911 21.9775 17C22.2965 16.9134 22.5882 16.7904 22.8525 16.6309C23.1442 16.4486 23.404 16.2207 23.6318 15.9473C23.8597 15.6738 24.0511 15.373 24.2061 15.0449C24.3519 14.7168 24.4635 14.3613 24.541 13.9785C24.6185 13.5911 24.6572 13.1833 24.6572 12.7549ZM22.709 11.292V12.7549C22.709 13.001 22.6953 13.238 22.668 13.4658C22.6452 13.6937 22.6087 13.9033 22.5586 14.0947C22.4948 14.3408 22.4082 14.5618 22.2988 14.7578C22.194 14.9492 22.0641 15.1087 21.9092 15.2363C21.7861 15.3411 21.6449 15.4209 21.4854 15.4756C21.3258 15.5303 21.1504 15.5576 20.959 15.5576C20.7585 15.5576 20.5785 15.528 20.4189 15.4688C20.264 15.4095 20.125 15.3252 20.002 15.2158C19.8698 15.0928 19.7536 14.9333 19.6533 14.7373C19.5576 14.5368 19.4847 14.3158 19.4346 14.0742C19.389 13.8828 19.3571 13.6755 19.3389 13.4521C19.3206 13.2288 19.3115 12.9964 19.3115 12.7549V11.292C19.3115 11.0368 19.3206 10.793 19.3389 10.5605C19.3617 10.3281 19.3958 10.1139 19.4414 9.91797C19.5007 9.66276 19.5827 9.43945 19.6875 9.24805C19.7969 9.05664 19.929 8.89714 20.084 8.76953C20.1979 8.68294 20.3255 8.61686 20.4668 8.57129C20.6126 8.52572 20.7744 8.50293 20.9521 8.50293C21.139 8.50293 21.3076 8.52799 21.458 8.57812C21.613 8.62826 21.752 8.69889 21.875 8.79004C22.0299 8.91309 22.1644 9.07259 22.2783 9.26855C22.3923 9.45996 22.4834 9.67871 22.5518 9.9248C22.6064 10.1208 22.6452 10.335 22.668 10.5674C22.6953 10.7952 22.709 11.0368 22.709 11.292ZM31.2881 14.4023C31.2881 14.5801 31.2516 14.7441 31.1787 14.8945C31.1058 15.0404 31.001 15.1657 30.8643 15.2705C30.7275 15.3753 30.5589 15.4574 30.3584 15.5166C30.1624 15.5758 29.9368 15.6055 29.6816 15.6055C29.3945 15.6055 29.1302 15.5736 28.8887 15.5098C28.6517 15.446 28.4489 15.3457 28.2803 15.209C28.1071 15.0723 27.9727 14.8968 27.877 14.6826C27.7812 14.4684 27.7288 14.2109 27.7197 13.9102H25.833C25.833 14.4251 25.931 14.874 26.127 15.2568C26.3275 15.6396 26.5986 15.9723 26.9404 16.2549C27.3005 16.542 27.722 16.7607 28.2051 16.9111C28.6927 17.057 29.1849 17.1299 29.6816 17.1299C30.1875 17.1299 30.6546 17.0706 31.083 16.9521C31.5114 16.8291 31.8805 16.6491 32.1904 16.4121C32.5003 16.1797 32.7419 15.8949 32.915 15.5576C33.0928 15.2158 33.1816 14.8262 33.1816 14.3887C33.1816 13.8828 33.0654 13.4362 32.833 13.0488C32.6006 12.6615 32.2884 12.3219 31.8965 12.0303C31.6367 11.8525 31.3519 11.6953 31.042 11.5586C30.7321 11.4219 30.4062 11.3057 30.0645 11.21C29.7454 11.1234 29.4583 11.0299 29.2031 10.9297C28.9525 10.8294 28.7383 10.7178 28.5605 10.5947C28.3828 10.4762 28.2461 10.3418 28.1504 10.1914C28.0592 10.041 28.0137 9.8724 28.0137 9.68555C28.0137 9.50781 28.0479 9.34375 28.1162 9.19336C28.1891 9.03841 28.2939 8.90397 28.4307 8.79004C28.5674 8.68066 28.7337 8.59635 28.9297 8.53711C29.1302 8.47331 29.3581 8.44141 29.6133 8.44141C29.8913 8.44141 30.1328 8.48014 30.3379 8.55762C30.5475 8.63053 30.723 8.73307 30.8643 8.86523C31.001 9.00195 31.1035 9.16374 31.1719 9.35059C31.2448 9.53743 31.2858 9.74251 31.2949 9.96582H33.168C33.168 9.51921 33.0814 9.10905 32.9082 8.73535C32.735 8.36165 32.4935 8.03809 32.1836 7.76465C31.8737 7.49577 31.5023 7.28613 31.0693 7.13574C30.641 6.98535 30.167 6.91016 29.6475 6.91016C29.1462 6.91016 28.6813 6.97624 28.2529 7.1084C27.8245 7.236 27.4531 7.42057 27.1387 7.66211C26.8242 7.90365 26.5781 8.19531 26.4004 8.53711C26.2227 8.87891 26.1338 9.25944 26.1338 9.67871C26.1338 10.0433 26.1999 10.3805 26.332 10.6904C26.4688 11.0003 26.6693 11.2829 26.9336 11.5381C27.1979 11.7933 27.5374 12.028 27.9521 12.2422C28.3714 12.4564 28.8568 12.6387 29.4082 12.7891C29.7637 12.8848 30.0599 12.9896 30.2969 13.1035C30.5384 13.2129 30.7344 13.3337 30.8848 13.4658C31.0306 13.6025 31.1331 13.7484 31.1924 13.9033C31.2562 14.0583 31.2881 14.2246 31.2881 14.4023ZM40.6533 12.6387V11.1211H36.5654V8.6123H41.3232V7.04688H34.6377V17H41.3438V15.4482H36.5654V12.6387H40.6533Z" fill="white"/>
<path d="M1 39.25H56" stroke="white" stroke-width="2" stroke-linecap="round" stroke-linejoin="round"/>
</svg>
