<svg width="58" height="41" viewBox="0 0 58 41" fill="none" xmlns="http://www.w3.org/2000/svg">
<path d="M47 7L51.5 12L56 7" stroke="black" stroke-width="3" stroke-linecap="round"/>
<path d="M3.25391 4.04688H0.868164V14H2.63184V11.0537L2.5498 6.58301L3.71875 10.7188H4.66895L5.97461 6.39844L5.89258 11.0537V14H7.65625V4.04688H5.27051L4.19727 7.78613L3.25391 4.04688ZM15.4287 9.63867V8.12109H11.3408V5.6123H16.0986V4.04688H9.41309V14H16.1191V12.4482H11.3408V9.63867H15.4287ZM24.2744 14V4.04688H22.3467L22.3398 10.4385L19.5918 4.04688H17.6572V14H19.5918V7.58105L22.3604 14H24.2744ZM32.751 4.04688H30.8438L30.8369 10.6436C30.8324 10.9671 30.7982 11.252 30.7344 11.498C30.6706 11.7441 30.5749 11.9492 30.4473 12.1133C30.3288 12.2728 30.1784 12.3936 29.9961 12.4756C29.8184 12.5531 29.6133 12.5918 29.3809 12.5918C29.1667 12.5918 28.9775 12.5553 28.8135 12.4824C28.6494 12.4049 28.5104 12.291 28.3965 12.1406C28.2734 11.9766 28.18 11.7692 28.1162 11.5186C28.057 11.2679 28.0251 10.9762 28.0205 10.6436L28.0137 4.04688H26.0928L26.0859 10.6436C26.0859 11.1995 26.1634 11.6963 26.3184 12.1338C26.4779 12.5667 26.7012 12.9313 26.9883 13.2275C27.2754 13.5238 27.6195 13.7493 28.0205 13.9043C28.4261 14.0592 28.8796 14.1367 29.3809 14.1367C29.9141 14.1367 30.388 14.0592 30.8027 13.9043C31.222 13.7493 31.5775 13.5215 31.8691 13.2207C32.1562 12.9245 32.375 12.5599 32.5254 12.127C32.6803 11.694 32.7578 11.1995 32.7578 10.6436L32.751 4.04688Z" fill="black"/>
<path d="M1 39.25H56" stroke="black" stroke-width="2" stroke-linecap="round" stroke-linejoin="round"/>
</svg>
