<svg width="58" height="41" viewBox="0 0 58 41" fill="none" xmlns="http://www.w3.org/2000/svg">
<path d="M47 7L51.5 12L56 7" stroke="black" stroke-width="3" stroke-linecap="round"/>
<path d="M7.80664 10.8828H5.88574C5.86751 11.1836 5.81738 11.4411 5.73535 11.6553C5.65332 11.8695 5.54167 12.0449 5.40039 12.1816C5.25911 12.3184 5.08822 12.4186 4.8877 12.4824C4.68717 12.5462 4.46159 12.5781 4.21094 12.5781C4.02409 12.5781 3.85319 12.5576 3.69824 12.5166C3.54785 12.471 3.41113 12.4027 3.28809 12.3115C3.17415 12.2295 3.07161 12.127 2.98047 12.0039C2.89388 11.8809 2.81868 11.7396 2.75488 11.5801C2.66374 11.3477 2.59538 11.0765 2.5498 10.7666C2.50879 10.4521 2.48828 10.0967 2.48828 9.7002V8.34668C2.48828 8.05501 2.50195 7.78385 2.5293 7.5332C2.55664 7.27799 2.59993 7.04557 2.65918 6.83594C2.73665 6.56706 2.83919 6.33236 2.9668 6.13184C3.09896 5.92676 3.25846 5.76953 3.44531 5.66016C3.55469 5.59635 3.67318 5.5485 3.80078 5.5166C3.93294 5.4847 4.07422 5.46875 4.22461 5.46875C4.50716 5.46875 4.7487 5.50749 4.94922 5.58496C5.1543 5.65788 5.3252 5.76725 5.46191 5.91309C5.59408 6.06348 5.69434 6.25033 5.7627 6.47363C5.83561 6.69694 5.88118 6.95671 5.89941 7.25293H7.81348C7.7679 6.7334 7.65853 6.26628 7.48535 5.85156C7.31217 5.43685 7.0752 5.08594 6.77441 4.79883C6.47363 4.51172 6.10905 4.29069 5.68066 4.13574C5.25684 3.98079 4.77148 3.90332 4.22461 3.90332C3.85547 3.90332 3.50911 3.95117 3.18555 4.04688C2.86654 4.13802 2.57259 4.27018 2.30371 4.44336C2.00293 4.64844 1.73405 4.89909 1.49707 5.19531C1.26009 5.49154 1.06868 5.82878 0.922852 6.20703C0.795247 6.51693 0.699544 6.85417 0.635742 7.21875C0.57194 7.57878 0.540039 7.95931 0.540039 8.36035V9.7002C0.540039 10.1286 0.574219 10.5342 0.642578 10.917C0.715495 11.2998 0.818034 11.6507 0.950195 11.9697C1.08691 12.2887 1.25326 12.5804 1.44922 12.8447C1.64974 13.109 1.8776 13.3346 2.13281 13.5215C2.41081 13.722 2.72298 13.877 3.06934 13.9863C3.42025 14.0911 3.80078 14.1436 4.21094 14.1436C4.73047 14.1436 5.20443 14.0684 5.63281 13.918C6.0612 13.763 6.43034 13.5443 6.74023 13.2617C7.05013 12.9792 7.29622 12.6374 7.47852 12.2363C7.66536 11.8353 7.77474 11.3841 7.80664 10.8828ZM11.3613 12.4482V4.04688H9.43359V14H16.0234V12.4482H11.3613ZM24.6572 9.75488V8.30566C24.6572 7.85449 24.6139 7.42839 24.5273 7.02734C24.4453 6.6263 24.3245 6.25716 24.165 5.91992C24.0192 5.6237 23.8438 5.35254 23.6387 5.10645C23.4382 4.86035 23.2035 4.65072 22.9346 4.47754C22.6657 4.29525 22.3626 4.15625 22.0254 4.06055C21.6927 3.96029 21.335 3.91016 20.9521 3.91016C20.5739 3.91016 20.223 3.95801 19.8994 4.05371C19.5758 4.14941 19.2842 4.28613 19.0244 4.46387C18.7601 4.64616 18.5254 4.86491 18.3203 5.12012C18.1198 5.37533 17.9489 5.66016 17.8076 5.97461C17.6618 6.30729 17.5501 6.6696 17.4727 7.06152C17.3997 7.45345 17.3633 7.86816 17.3633 8.30566V9.75488C17.3633 10.165 17.3952 10.5547 17.459 10.9238C17.5273 11.293 17.6253 11.6348 17.7529 11.9492C17.8942 12.291 18.0697 12.5986 18.2793 12.8721C18.4889 13.141 18.7259 13.3711 18.9902 13.5625C19.2591 13.7448 19.5576 13.8861 19.8857 13.9863C20.2139 14.0866 20.5716 14.1367 20.959 14.1367C21.3236 14.1367 21.6631 14.0911 21.9775 14C22.2965 13.9134 22.5882 13.7904 22.8525 13.6309C23.1442 13.4486 23.404 13.2207 23.6318 12.9473C23.8597 12.6738 24.0511 12.373 24.2061 12.0449C24.3519 11.7168 24.4635 11.3613 24.541 10.9785C24.6185 10.5911 24.6572 10.1833 24.6572 9.75488ZM22.709 8.29199V9.75488C22.709 10.001 22.6953 10.238 22.668 10.4658C22.6452 10.6937 22.6087 10.9033 22.5586 11.0947C22.4948 11.3408 22.4082 11.5618 22.2988 11.7578C22.194 11.9492 22.0641 12.1087 21.9092 12.2363C21.7861 12.3411 21.6449 12.4209 21.4854 12.4756C21.3258 12.5303 21.1504 12.5576 20.959 12.5576C20.7585 12.5576 20.5785 12.528 20.4189 12.4688C20.264 12.4095 20.125 12.3252 20.002 12.2158C19.8698 12.0928 19.7536 11.9333 19.6533 11.7373C19.5576 11.5368 19.4847 11.3158 19.4346 11.0742C19.389 10.8828 19.3571 10.6755 19.3389 10.4521C19.3206 10.2288 19.3115 9.99642 19.3115 9.75488V8.29199C19.3115 8.03678 19.3206 7.79297 19.3389 7.56055C19.3617 7.32812 19.3958 7.11393 19.4414 6.91797C19.5007 6.66276 19.5827 6.43945 19.6875 6.24805C19.7969 6.05664 19.929 5.89714 20.084 5.76953C20.1979 5.68294 20.3255 5.61686 20.4668 5.57129C20.6126 5.52572 20.7744 5.50293 20.9521 5.50293C21.139 5.50293 21.3076 5.52799 21.458 5.57812C21.613 5.62826 21.752 5.69889 21.875 5.79004C22.0299 5.91309 22.1644 6.07259 22.2783 6.26855C22.3923 6.45996 22.4834 6.67871 22.5518 6.9248C22.6064 7.12077 22.6452 7.33496 22.668 7.56738C22.6953 7.79525 22.709 8.03678 22.709 8.29199ZM31.2881 11.4023C31.2881 11.5801 31.2516 11.7441 31.1787 11.8945C31.1058 12.0404 31.001 12.1657 30.8643 12.2705C30.7275 12.3753 30.5589 12.4574 30.3584 12.5166C30.1624 12.5758 29.9368 12.6055 29.6816 12.6055C29.3945 12.6055 29.1302 12.5736 28.8887 12.5098C28.6517 12.446 28.4489 12.3457 28.2803 12.209C28.1071 12.0723 27.9727 11.8968 27.877 11.6826C27.7812 11.4684 27.7288 11.2109 27.7197 10.9102H25.833C25.833 11.4251 25.931 11.874 26.127 12.2568C26.3275 12.6396 26.5986 12.9723 26.9404 13.2549C27.3005 13.542 27.722 13.7607 28.2051 13.9111C28.6927 14.057 29.1849 14.1299 29.6816 14.1299C30.1875 14.1299 30.6546 14.0706 31.083 13.9521C31.5114 13.8291 31.8805 13.6491 32.1904 13.4121C32.5003 13.1797 32.7419 12.8949 32.915 12.5576C33.0928 12.2158 33.1816 11.8262 33.1816 11.3887C33.1816 10.8828 33.0654 10.4362 32.833 10.0488C32.6006 9.66146 32.2884 9.32194 31.8965 9.03027C31.6367 8.85254 31.3519 8.69531 31.042 8.55859C30.7321 8.42188 30.4062 8.30566 30.0645 8.20996C29.7454 8.12337 29.4583 8.02995 29.2031 7.92969C28.9525 7.82943 28.7383 7.71777 28.5605 7.59473C28.3828 7.47624 28.2461 7.3418 28.1504 7.19141C28.0592 7.04102 28.0137 6.8724 28.0137 6.68555C28.0137 6.50781 28.0479 6.34375 28.1162 6.19336C28.1891 6.03841 28.2939 5.90397 28.4307 5.79004C28.5674 5.68066 28.7337 5.59635 28.9297 5.53711C29.1302 5.47331 29.3581 5.44141 29.6133 5.44141C29.8913 5.44141 30.1328 5.48014 30.3379 5.55762C30.5475 5.63053 30.723 5.73307 30.8643 5.86523C31.001 6.00195 31.1035 6.16374 31.1719 6.35059C31.2448 6.53743 31.2858 6.74251 31.2949 6.96582H33.168C33.168 6.51921 33.0814 6.10905 32.9082 5.73535C32.735 5.36165 32.4935 5.03809 32.1836 4.76465C31.8737 4.49577 31.5023 4.28613 31.0693 4.13574C30.641 3.98535 30.167 3.91016 29.6475 3.91016C29.1462 3.91016 28.6813 3.97624 28.2529 4.1084C27.8245 4.236 27.4531 4.42057 27.1387 4.66211C26.8242 4.90365 26.5781 5.19531 26.4004 5.53711C26.2227 5.87891 26.1338 6.25944 26.1338 6.67871C26.1338 7.04329 26.1999 7.38053 26.332 7.69043C26.4688 8.00033 26.6693 8.28288 26.9336 8.53809C27.1979 8.79329 27.5374 9.02799 27.9521 9.24219C28.3714 9.45638 28.8568 9.63867 29.4082 9.78906C29.7637 9.88477 30.0599 9.98958 30.2969 10.1035C30.5384 10.2129 30.7344 10.3337 30.8848 10.4658C31.0306 10.6025 31.1331 10.7484 31.1924 10.9033C31.2562 11.0583 31.2881 11.2246 31.2881 11.4023ZM40.6533 9.63867V8.12109H36.5654V5.6123H41.3232V4.04688H34.6377V14H41.3438V12.4482H36.5654V9.63867H40.6533Z" fill="black"/>
<path d="M1 39.25H56" stroke="black" stroke-width="2" stroke-linecap="round" stroke-linejoin="round"/>
</svg>
